<?xml version="1.0" encoding="utf-8"?>
<!-- Generator: Adobe Illustrator 24.0.3, SVG Export Plug-In . SVG Version: 6.00 Build 0)  -->
<svg version="1.1" id="Calque_2_1_" xmlns="http://www.w3.org/2000/svg" xmlns:xlink="http://www.w3.org/1999/xlink" x="0px"
	 y="0px" viewBox="0 0 32 32" style="enable-background:new 0 0 32 32;" xml:space="preserve">
<g>
	<path d="M22.62,14.09c0,0-0.99-4.47-5.47-4.64c-4.47-0.17-5.63,3.98-5.63,3.98s-1.99-1.16-3.31,0s-0.83,2.65-0.83,2.65
		s-2.15,0.17-2.98,1.49s-0.66,2.98-0.66,2.98H20.3c0,0,0.5-0.66,0.33-1.66c-0.17-0.99-1.82-0.83-1.82-0.83h-8.45
		c0,0-0.2-0.1-0.13-0.3c0.04-0.12,0.16-0.2,0.29-0.2c1.29-0.02,9.12-0.16,9.12-0.16S21.46,17.74,22.62,14.09z"/>
	<path d="M23.12,14.26c0,0,3.31-0.17,4.47,2.49s0.5,3.81,0.5,3.81h-7.13c0,0,0.17-2.32,3.48-2.49h1.09c0.19,0,0.38-0.09,0.49-0.25
		c0.08-0.12,0.08-0.25-0.25-0.25c-0.66,0-2.15-0.17-2.15-0.17S21.8,17.24,23.12,14.26z"/>
</g>
</svg>
