<?xml version="1.0" encoding="utf-8"?>
<!-- Generator: Adobe Illustrator 24.0.3, SVG Export Plug-In . SVG Version: 6.00 Build 0)  -->
<svg version="1.1" id="Calque_1" xmlns="http://www.w3.org/2000/svg" xmlns:xlink="http://www.w3.org/1999/xlink" x="0px" y="0px"
	 viewBox="0 0 32 32" style="enable-background:new 0 0 32 32;" xml:space="preserve">
<path d="M16,2.28C8.43,2.28,2.28,8.43,2.28,16S8.43,29.72,16,29.72S29.72,23.58,29.72,16S23.58,2.28,16,2.28z M16,3.48
	c6.92,0,12.52,5.61,12.52,12.52S22.92,28.53,16,28.53S3.48,22.92,3.48,16S9.08,3.48,16,3.48z M15.41,4.73
	c-0.74,0.14-1.46,0.55-2.14,1.23C12.5,6.73,11.85,7.77,11.34,9c1.27,0.25,2.65,0.39,4.07,0.43V4.73z M16.6,4.73v4.7
	c1.42-0.03,2.79-0.18,4.07-0.43c-0.52-1.24-1.18-2.3-1.95-3.06C18.04,5.27,17.33,4.87,16.6,4.73z M12.25,5.32
	C10.64,5.88,9.19,6.81,8,8c0.66,0.28,1.38,0.54,2.17,0.74C10.72,7.38,11.42,6.2,12.25,5.32z M19.75,5.32
	c0.83,0.89,1.53,2.06,2.08,3.42C22.62,8.53,23.34,8.28,24,8C22.81,6.81,21.37,5.88,19.75,5.32z M24.83,8.93
	c-0.78,0.36-1.65,0.68-2.6,0.93c0.2,0.63,0.36,1.29,0.5,1.97h-1.21c-0.13-0.59-0.27-1.15-0.44-1.69c-1.4,0.29-2.92,0.45-4.48,0.49
	v1.21h-1.19v-1.21c-1.56-0.03-3.08-0.2-4.48-0.49c-0.17,0.54-0.32,1.11-0.44,1.7H9.27c0.14-0.68,0.3-1.34,0.5-1.97
	c-0.95-0.25-1.82-0.57-2.6-0.93c-0.83,1.03-1.48,2.21-1.91,3.49c-0.32,0.94-0.51,1.95-0.56,2.98h1.76v1.19H4.7
	c0.06,1.04,0.25,2.04,0.56,2.98c0.43,1.28,1.08,2.46,1.91,3.49c0.78-0.36,1.65-0.68,2.6-0.93c-0.2-0.63-0.36-1.29-0.5-1.97h1.21
	c0.13,0.59,0.27,1.15,0.44,1.69c1.4-0.29,2.92-0.45,4.48-0.49v-1.21h1.19v1.21c1.56,0.03,3.08,0.2,4.48,0.49
	c0.17-0.54,0.32-1.11,0.44-1.7h1.21c-0.14,0.68-0.3,1.34-0.5,1.97c0.95,0.25,1.82,0.57,2.6,0.93c0.83-1.03,1.48-2.21,1.91-3.49
	c0.32-0.95,0.51-1.95,0.56-2.98h-1.76v-1.19h1.76c-0.06-1.04-0.25-2.04-0.56-2.98C26.32,11.14,25.66,9.96,24.83,8.93z M22.12,13.02
	c0.34,0,0.65,0.05,0.92,0.13c0.27,0.09,0.51,0.21,0.7,0.37c0.19,0.16,0.34,0.35,0.45,0.57c0.1,0.22,0.16,0.46,0.16,0.72h-1.43
	c0-0.12-0.02-0.24-0.05-0.34c-0.03-0.1-0.08-0.19-0.15-0.26c-0.07-0.07-0.15-0.13-0.26-0.17c-0.1-0.04-0.23-0.06-0.38-0.06
	c-0.14,0-0.25,0.02-0.35,0.05c-0.1,0.03-0.18,0.08-0.25,0.14c-0.07,0.06-0.11,0.13-0.15,0.21c-0.03,0.08-0.05,0.17-0.05,0.26
	c0,0.1,0.03,0.18,0.08,0.26c0.05,0.08,0.12,0.15,0.21,0.22c0.09,0.07,0.2,0.13,0.34,0.19c0.13,0.06,0.28,0.12,0.44,0.17
	c0.33,0.1,0.62,0.21,0.87,0.33c0.25,0.12,0.45,0.26,0.62,0.41c0.17,0.15,0.29,0.32,0.37,0.51c0.08,0.19,0.12,0.41,0.12,0.64
	c0,0.26-0.05,0.48-0.15,0.68c-0.1,0.2-0.25,0.37-0.44,0.5c-0.19,0.14-0.42,0.24-0.69,0.32c-0.27,0.07-0.57,0.11-0.91,0.11
	c-0.31,0-0.61-0.04-0.9-0.11c-0.29-0.08-0.56-0.19-0.79-0.35c-0.23-0.16-0.42-0.35-0.56-0.59c-0.14-0.24-0.21-0.52-0.21-0.85h1.44
	c0,0.18,0.02,0.32,0.06,0.45c0.04,0.12,0.11,0.22,0.19,0.3c0.09,0.08,0.19,0.13,0.32,0.16c0.13,0.03,0.28,0.05,0.44,0.05
	c0.14,0,0.25-0.02,0.35-0.05c0.1-0.03,0.17-0.08,0.23-0.14c0.06-0.06,0.1-0.13,0.13-0.21s0.04-0.17,0.04-0.26
	c0-0.1-0.01-0.19-0.03-0.27s-0.07-0.16-0.14-0.23c-0.07-0.07-0.18-0.14-0.31-0.21c-0.14-0.07-0.32-0.14-0.54-0.21
	c-0.27-0.08-0.52-0.18-0.76-0.28c-0.24-0.11-0.45-0.23-0.64-0.38c-0.18-0.14-0.33-0.31-0.44-0.5c-0.11-0.19-0.16-0.41-0.16-0.66
	c0-0.24,0.06-0.46,0.17-0.66c0.11-0.2,0.26-0.37,0.46-0.51c0.2-0.14,0.44-0.25,0.71-0.33C21.49,13.06,21.79,13.02,22.12,13.02z
	 M7.65,13.1h1.88c0.41,0,0.78,0.05,1.12,0.16c0.34,0.11,0.62,0.27,0.86,0.48c0.24,0.21,0.42,0.47,0.56,0.77
	c0.13,0.3,0.2,0.65,0.2,1.04v0.9c0,0.39-0.06,0.74-0.19,1.04c-0.13,0.3-0.32,0.56-0.56,0.77c-0.24,0.21-0.53,0.37-0.87,0.48
	c-0.34,0.11-0.72,0.16-1.13,0.16H7.65V13.1z M13.62,13.1h1.38l2.02,3.81V13.1h1.37v5.8h0h-1.38l-2.02-3.81v3.81h-1.38V13.1z
	 M9.09,14.08v3.85h0.43c0.25,0,0.46-0.03,0.63-0.08s0.3-0.14,0.4-0.26s0.17-0.27,0.21-0.46c0.04-0.19,0.06-0.41,0.06-0.67v-0.91
	c0-0.27-0.02-0.49-0.06-0.68c-0.04-0.19-0.11-0.34-0.21-0.45c-0.1-0.12-0.23-0.2-0.4-0.26c-0.17-0.05-0.37-0.08-0.62-0.08H9.09z
	 M15.41,22.58c-0.55,0.01-1.1,0.05-1.64,0.09c-0.15,0.01-0.3,0.02-0.45,0.04c-0.68,0.07-1.34,0.17-1.98,0.29
	c0.52,1.24,1.18,2.3,1.95,3.06c0.67,0.66,1.38,1.06,2.11,1.21v0V22.58z M16.6,22.58v4.69c0.74-0.14,1.46-0.55,2.14-1.23
	c0.77-0.76,1.41-1.81,1.93-3.04C19.39,22.75,18.01,22.61,16.6,22.58z M10.17,23.27c-0.01,0-0.01,0-0.02,0.01v0
	C9.38,23.47,8.66,23.72,8,24c0.15,0.15,0.3,0.29,0.45,0.43c0,0,0,0,0,0c0.15,0.14,0.31,0.27,0.47,0.4c0.12,0.1,0.25,0.19,0.37,0.28
	c0.04,0.03,0.09,0.07,0.13,0.1c0.14,0.1,0.29,0.2,0.44,0.3c0.03,0.02,0.05,0.04,0.08,0.05c0.14,0.09,0.28,0.17,0.42,0.25
	c0.04,0.02,0.08,0.05,0.13,0.07c0.31,0.18,0.64,0.33,0.97,0.48c0.06,0.03,0.11,0.05,0.17,0.08c0.2,0.09,0.41,0.17,0.62,0.24
	C11.42,25.8,10.72,24.63,10.17,23.27z M21.83,23.27c-0.55,1.36-1.25,2.53-2.08,3.42c1.61-0.57,3.06-1.5,4.24-2.68
	C23.34,23.72,22.62,23.47,21.83,23.27z"/>
</svg>
