<svg xmlns="http://www.w3.org/2000/svg" version="1.1" xmlns:xlink="http://www.w3.org/1999/xlink" xmlns:svgjs="http://svgjs.com/svgjs" width="295" height="296"><svg id="SvgjsSvg1000" data-name="Calque 1" xmlns="http://www.w3.org/2000/svg" viewBox="0 0 295 296"><title>logo2</title><path d="M18,244,2.36,241.55c8.92-5,13.59-13.64,16.6-23.41a5,5,0,0,1,1.35-2c11.54-11,17.6-25.24,23.92-39.41,5.75-12.88,12-25.55,17.94-38.31a8.37,8.37,0,0,0,.87-2.3C66,114.5,74.35,94.5,81.1,74c1-2.9,2.72-5.53,4.6-9.26.51,3.13.83,5.1,1.2,7.43,9.16-6.7,8.75-18.29,15.21-26,2.21,3.64,2.77,9.55,1.26,14.29a87.91,87.91,0,0,1-4,11.24c-1.49,3.14-.77,5,1.73,7.18A212.31,212.31,0,0,1,144.26,129c6.51,10.59,16.18,19.23,24.43,28.75l2-.5c0-7.33-.05-14.66,0-22,0-5.1.37-10.21.3-15.3a79,79,0,0,0-1-8.79c-1.08-8.55-2.54-17.13,2.19-25.64,3.7,3,5.95,1.13,7.68-1.85,1.47-2.52,2.67-5.19,4-7.89,3.91,1.47,5.49,3.41,4.11,7.07-1.31,3.47-2.47,7-3.48,9.89-1.22.77-2.72,1.18-3,2a24.57,24.57,0,0,0-.79,5.34l1.55.29c.44-.88.89-1.76,2-3.87,1.19,11.08,6.47,20.24,3.63,30.66-.69,2.55-.11,5.53.22,8.27q2.42,19.71,5.06,39.39c.32,2.43,1.25,4.42,4.43,2.56.81-.47,2.6-.57,3.1,0,3.14,3.32,5.93,1.72,9.24.15,14.3-6.76,29.56-8.43,45.23-8.47a62.2,62.2,0,0,0,18.4-2.93c8.59-2.74,20.14,4.16,20.41,13.13,0,1.15-.39,2.9-1.2,3.38-4.85,2.9-9.8,5.64-14.86,8.13-1.72.85-4.06,1.51-5.81,1.07-9.7-2.5-18.57,1.18-27.68,3.16a3.88,3.88,0,0,1-2.31-.43c-9.56-4.42-18.79-3.13-28.13,1-4,1.76-8.44,2.42-13.59,3.84L222.52,224a29.89,29.89,0,0,1-3.63.44c-9-.09-18-.3-27-.35-16.59-.09-33.24-.86-49.78,0-31.95,1.73-63.64,5.76-94.68,14-7.06,1.87-14.3,3.08-21.44,4.66A7.2,7.2,0,0,0,24,244Zm25.53-25.74,28.94-7.21c2.58-.64,5.17-1.92,7.73-1.83,8.28.29,15.94-2.05,23.83-4.07,16.76-4.31,34-4,51.15-3.39,3.78.14,8.37-.23,11.12,1.71,4.11,2.89,6.51,1.24,8.93-.27-8.1-9.6-16.55-18.8-24.08-28.7-14.48-19.06-28.5-38.48-45.8-55.2a14.37,14.37,0,0,1-1.81-3C99.81,110.13,96,104,92.4,97.7c-1.29-2.22-2.25-4.62-3.55-7.33-2.51,6.22-6.88,11.63-5,19L86.32,103a8.85,8.85,0,0,1,.14,5.13c-3.46,13.6-6.52,27.33-10.66,40.73-2.73,8.86-6.92,17.3-10.68,25.83-2.61,5.91-5.53,11.69-8.41,17.47C52.4,200.82,48,209.41,43.52,218.26Z"></path><path d="M89,44,85.14,57.74l-1.48-.4C83.5,52.49,86.35,48.4,88,44Z"></path></svg><style>@media (prefers-color-scheme: light) { :root { filter: contrast(1) brightness(1); } }
@media (prefers-color-scheme: dark) { :root { filter: invert(100%); } }
</style></svg>