<?xml version="1.0" encoding="utf-8"?>
<!-- Generator: Adobe Illustrator 24.0.3, SVG Export Plug-In . SVG Version: 6.00 Build 0)  -->
<svg version="1.1" id="Calque_2_1_" xmlns="http://www.w3.org/2000/svg" xmlns:xlink="http://www.w3.org/1999/xlink" x="0px"
	 y="0px" viewBox="0 0 32 32" style="enable-background:new 0 0 32 32;" xml:space="preserve">
<path d="M25.51,6.68c-0.12,0-0.21,0.09-0.22,0.21c-0.28,4.79-10.1,5.05-10.1,5.05l-8.95-0.07c-0.06,0-0.12,0.02-0.16,0.07l-1.94,2
	c-0.04,0.04-0.06,0.09-0.06,0.15v3.82c0,0.05,0.02,0.11,0.06,0.15l1.74,1.86c0.04,0.04,0.1,0.07,0.16,0.07l5.4-0.04L8,19.97
	c-0.16,0-0.26,0.16-0.2,0.3l2.12,4.81c0.01,0.01,0.01,0.03,0.01,0.04c0.03,0.18,0.27,1.37,2.06,1.31c1.93-0.07,1.6-1.33,1.6-1.33
	l-0.18-3.09c-0.01-0.13,0.1-0.23,0.22-0.23c1.61,0.03,0.76-0.94,0.76-0.94l-0.42-0.58c-0.1-0.14,0-0.34,0.17-0.34l0.98-0.01
	c9.43,0.06,10.25,4.03,10.31,4.98c0.01,0.12,0.1,0.2,0.22,0.2h1.63c0.12,0,0.22-0.1,0.22-0.22v-18c0-0.12-0.1-0.22-0.22-0.22H25.51z
	"/>
</svg>
