<?xml version="1.0" encoding="utf-8"?>
<!-- Generator: Adobe Illustrator 24.0.3, SVG Export Plug-In . SVG Version: 6.00 Build 0)  -->
<svg version="1.1" id="Calque_1" xmlns="http://www.w3.org/2000/svg" xmlns:xlink="http://www.w3.org/1999/xlink" x="0px" y="0px"
	 viewBox="0 0 32 32" style="enable-background:new 0 0 32 32;" xml:space="preserve">
<g id="Calque_2_1_">
	<path d="M22.96,3.29H9.04c-3.17,0-5.75,2.57-5.75,5.75v13.92c0,3.17,2.57,5.75,5.75,5.75h13.92c3.17,0,5.75-2.57,5.75-5.75V9.04
		C28.71,5.86,26.13,3.29,22.96,3.29z M19.1,22.12c-3.28,2.2-8.09,0-8.09,0v-3.59c6.15,2.46,5.88,0.38,5.88,0.38
		c0.26-0.87-2.12-1.7-3.01-1.98c-0.27-0.08-0.53-0.19-0.77-0.34c-3.49-2.05-1.57-5.36-1.57-5.36c3.02-4.03,8.63-1.45,8.63-1.45
		l0.05,3.46c-4.82-1.55-5.33-0.76-5.14-0.05c0.11,0.39,0.41,0.69,0.8,0.83c1.25,0.44,2.29,0.91,3.02,1.29
		c1,0.52,1.71,1.46,1.91,2.57C21.04,19.18,20.9,20.91,19.1,22.12z"/>
</g>
</svg>
